<svg xmlns="http://www.w3.org/2000/svg" viewBox="0 0 96 96" role="img" aria-label="Admission OS">
  <defs>
    <linearGradient id="sky" x1="20" x2="76" y1="10" y2="86" gradientUnits="userSpaceOnUse">
      <stop offset="0" stop-color="#E9F8F1"/>
      <stop offset="0.56" stop-color="#D9ECFF"/>
      <stop offset="1" stop-color="#FFF4D7"/>
    </linearGradient>
    <linearGradient id="growth" x1="24" x2="70" y1="24" y2="74" gradientUnits="userSpaceOnUse">
      <stop offset="0" stop-color="#23B87A"/>
      <stop offset="1" stop-color="#2F7DD3"/>
    </linearGradient>
  </defs>
  <rect width="96" height="96" rx="24" fill="url(#sky)"/>
  <path d="M23 68c9-16 16-24 25-24 8 0 13 6 20 18l5 8H23Z" fill="url(#growth)"/>
  <path d="M33 64c7-9 12-13 17-13 6 0 10 5 15 13H33Z" fill="#FFFFFF" opacity=".72"/>
  <path d="M48 19l4.3 8.7 9.7 1.4-7 6.8 1.7 9.6L48 42l-8.7 4.5 1.7-9.6-7-6.8 9.7-1.4L48 19Z" fill="#FFB347"/>
  <path d="M25 72h46" stroke="#1C6E52" stroke-width="5" stroke-linecap="round" opacity=".24"/>
</svg>
